HIERARCHY
ROOT Hips
{
	OFFSET -3.958830 18.904000 13.208200
	CHANNELS 6 Xposition Yposition Zposition Zrotation Yrotation Xrotation 
	JOINT LHipJoint
	{
		OFFSET 0.000000 0.000000 0.000000
		CHANNELS 3 Zrotation Yrotation Xrotation
		JOINT LeftUpLeg
		{
			OFFSET 1.800000 -1.400000 0.085000
			CHANNELS 3 Zrotation Yrotation Xrotation
			JOINT LeftLeg
			{
				OFFSET 2.215000 -6.000000 0.000000
				CHANNELS 3 Zrotation Yrotation Xrotation
				JOINT LeftFoot
				{
					OFFSET 2.500000 -6.900000 0.000000
					CHANNELS 3 Zrotation Yrotation Xrotation
					JOINT LeftToeBase
					{
						OFFSET 0.200000 -0.500000 1.950000
						CHANNELS 3 Zrotation Yrotation Xrotation
						End Site
						{
							OFFSET 0.000000 0.000000 0.000000
						}
					}
				}
			}
		}
	}
	JOINT RHipJoint
	{
		OFFSET 0.000000 0.000000 0.000000
		CHANNELS 3 Zrotation Yrotation Xrotation
		JOINT RightUpLeg
		{
			OFFSET -1.800000 -1.400000 0.085000
			CHANNELS 3 Zrotation Yrotation Xrotation
			JOINT RightLeg
			{
				OFFSET -2.215000 -6.000000 0.000000
				CHANNELS 3 Zrotation Yrotation Xrotation
				JOINT RightFoot
				{
					OFFSET -2.500000 -6.900000 0.000000
					CHANNELS 3 Zrotation Yrotation Xrotation
					JOINT RightToeBase
					{
						OFFSET -0.200000 -0.500000 1.950000
						CHANNELS 3 Zrotation Yrotation Xrotation
						End Site
						{
							OFFSET 0.000000 0.000000 0.000000
						}
					}
				}
			}
		}
	}
	JOINT LowerBack
	{
		OFFSET 0.000000 0.000000 0.000000
		CHANNELS 3 Zrotation Yrotation Xrotation
		JOINT Spine
		{
			OFFSET -0.087000 1.940000 -0.288900
			CHANNELS 3 Zrotation Yrotation Xrotation
			JOINT Spine1
			{
				OFFSET 0.000000 1.950000 0.060000
				CHANNELS 3 Zrotation Yrotation Xrotation
				JOINT Neck
				{
					OFFSET 0.000000 0.000000 0.000000
					CHANNELS 3 Zrotation Yrotation Xrotation
					JOINT Neck1
					{
						OFFSET 0.000000 1.600000 0.340000
						CHANNELS 3 Zrotation Yrotation Xrotation
						JOINT Head
						{
							OFFSET 0.000000 1.667000 -0.240000
							CHANNELS 3 Zrotation Yrotation Xrotation
							End Site
							{
								OFFSET 0.000000 0.000000 0.000000
							}
						}
					}
				}
				JOINT LeftShoulder
				{
					OFFSET 0.000000 0.000000 0.000000
					CHANNELS 3 Zrotation Yrotation Xrotation
					JOINT LeftArm
					{
						OFFSET 2.700000 1.550000 -0.730000
						CHANNELS 3 Zrotation Yrotation Xrotation
						JOINT LeftForeArm
						{
							OFFSET 5.450000 0.000000 0.000000
							CHANNELS 3 Zrotation Yrotation Xrotation
							JOINT LeftHand
							{
								OFFSET 3.450000 0.000000 0.000000
								CHANNELS 3 Zrotation Yrotation Xrotation
								JOINT LeftHandIndex1
								{
									OFFSET 0.750000 0.000000 0.000000
									CHANNELS 3 Zrotation Yrotation Xrotation
									End Site
									{
										OFFSET 0.000000 0.000000 0.000000
									}
								}
							}
						}
					}
				}
				JOINT RightShoulder
				{
					OFFSET 0.000000 0.000000 0.000000
					CHANNELS 3 Zrotation Yrotation Xrotation
					JOINT RightArm
					{
						OFFSET -2.700000 1.550000 -0.730000
						CHANNELS 3 Zrotation Yrotation Xrotation
						JOINT RightForeArm
						{
							OFFSET -5.450000 0.000000 0.000000
							CHANNELS 3 Zrotation Yrotation Xrotation
							JOINT RightHand
							{
								OFFSET -3.450000 0.000000 0.000000
								CHANNELS 3 Zrotation Yrotation Xrotation
								JOINT RightHandIndex1
								{
									OFFSET -0.750000 0.000000 0.000000
									CHANNELS 3 Zrotation Yrotation Xrotation
									End Site
									{
										OFFSET 0.000000 0.000000 0.000000
									}
								}
							}
						}
					}
				}
			}
		}
	}
}
MOTION
Frames: 4
Frame Time: 0.016667
1.268470 16.268410 -0.037410 -11.031312 -18.347523 5.394518 -15.195137 11.004376 0.607694 8.165281 -1.957573 -12.461981 -0.090166 4.633351 17.268478 -1.122603 4.319776 3.425115 1.013730 0.530120 0.437140 19.154583 -6.849400 7.969011 -41.813613 2.093432 -68.608742 47.389948 -55.636122 67.965094 -3.433628 -16.582102 -0.204455 0.719690 0.718620 0.273830 -5.235719 -1.656191 -8.354059 17.624222 -3.750000 8.681404 -4.977421 -0.808799 5.319104 -0.788318 -6.939925 -3.337145 -12.002789 9.048981 20.855863 0.359060 0.795340 -4.317910 -29.400706 -1.130502 -2.575266 -38.309654 -1.938137 -3.683862 -31.777080 -16.471494 1.176941 -4.121045 3.372543 0.270610 0.577410 -0.517360 0.629420 29.923811 3.708023 2.088165 30.832557 -4.188100 -4.344135 20.388582 11.481487 -1.122957 1.497166 -1.945731 -0.378220 0.452820 -0.194580 -0.273020 
1.272310 16.213840 -0.064480 -11.117051 -19.285848 5.381271 -15.188387 10.980896 0.599993 8.068248 -1.924893 -12.937865 -0.403136 5.015031 18.866729 -1.164017 4.510968 3.349941 1.021700 0.547520 0.433520 19.161492 -6.837619 8.013039 -41.622098 2.731921 -69.239056 48.439889 -56.699752 68.307624 -3.477651 -16.680242 -0.215600 0.764210 0.739060 0.231510 -5.289727 -1.596791 -8.371159 17.838820 -3.747306 9.121700 -5.342124 -0.693396 5.125325 -0.927295 -7.212187 -3.050814 -12.469151 9.366650 20.681809 0.976500 0.433180 -4.925130 -30.169748 -0.976704 -2.860517 -37.407908 -1.956313 -3.437015 -31.203958 -15.694693 0.907497 -4.124834 3.311362 0.288310 0.571410 -0.535660 0.627240 30.851861 3.690075 1.910643 29.791208 -3.896739 -4.230820 20.602899 12.230315 -0.996481 1.451854 -1.929147 -0.424680 0.520300 -0.177740 -0.282390 
1.279560 16.124180 -0.097900 -11.123269 -20.343890 4.718572 -15.171202 11.065417 0.659698 7.895324 -1.863272 -13.616166 -0.703575 5.666162 21.805683 -1.169462 4.881410 3.189442 1.044090 0.550530 0.490470 19.130057 -6.921974 7.940178 -39.637431 4.834155 -68.171855 47.748436 -57.443434 70.397924 -3.617319 -17.053259 -0.307800 0.779900 0.710140 0.224190 -5.291682 -1.614030 -8.399138 17.933963 -3.905159 10.376572 -6.066358 -0.799728 4.576887 -0.812884 -7.427735 -2.772887 -12.893134 9.994406 20.984372 0.969530 0.926660 -6.046270 -31.548726 -0.999015 -3.157976 -36.285259 -1.883666 -3.189431 -29.005617 -13.992212 0.239439 -4.106964 3.237570 0.352040 0.539670 -0.504030 0.607460 31.885933 3.699897 1.739045 28.775035 -3.541599 -4.329184 20.728748 13.564174 -0.724271 1.419177 -1.906704 -0.453600 0.550670 -0.173410 -0.318060 
1.292850 16.037040 -0.127610 -11.236502 -21.980245 3.815932 -15.128178 11.239866 0.798926 8.055488 -1.737204 -14.059708 -1.283357 6.485238 24.586590 -1.097281 5.311823 3.017854 1.003640 0.497400 0.491230 19.066058 -7.150587 7.699958 -35.364515 8.508528 -65.404977 46.510718 -57.009088 72.451386 -3.757725 -17.495613 -0.386059 0.737930 0.691500 0.201560 -5.280619 -1.610130 -8.422547 18.277210 -4.030909 12.267250 -6.855789 -0.887039 3.502497 -0.614878 -7.748204 -2.616511 -13.584946 10.710990 22.009548 1.160050 1.583440 -6.541010 -33.008487 -0.844914 -3.318643 -35.518654 -1.297210 -3.138044 -25.822639 -12.217462 -0.400845 -4.080612 3.135882 0.406180 0.507400 -0.480770 0.583020 32.784709 3.691584 1.618877 27.942167 -3.233734 -4.647952 20.733363 15.133424 -0.338527 1.413725 -1.855260 -0.478490 0.570970 -0.154330 -0.338130 
